<svg width="1024" height="1024" viewBox="0 0 1024 1024" fill="none" xmlns="http://www.w3.org/2000/svg">
<g clip-path="url(#clip0_115_7802)">
<rect width="1024" height="1024" fill="white"/>
<mask id="mask0_115_7802" style="mask-type:luminance" maskUnits="userSpaceOnUse" x="0" y="0" width="1024" height="1024">
<rect width="1024" height="1024" fill="white"/>
</mask>
<g mask="url(#mask0_115_7802)">
<path opacity="0.5" fill-rule="evenodd" clip-rule="evenodd" d="M706.164 908.556C749.419 887.291 788.706 859.182 822.601 825.612L950.618 953.629H706.164V908.556ZM514.164 953.629V953.578C581.304 953.254 644.954 937.894 701.897 910.655V953.629H514.164ZM322.164 953.629V910.655C379.107 937.894 442.757 953.254 509.897 953.578V953.629H322.164ZM73.4507 953.629L201.459 825.612C235.354 859.182 274.65 887.291 317.897 908.556V953.629H73.4507ZM115.503 706.162C136.768 749.418 164.877 788.705 198.447 822.599L70.4302 950.617V706.162H115.503ZM70.4302 514.162H70.4814C70.8056 581.311 86.1656 644.953 113.404 701.895H70.4302V514.162ZM70.4302 322.162H113.404C86.1656 379.105 70.8056 442.755 70.4814 509.895H70.4302V322.162ZM70.4302 73.4497L198.447 201.458C164.877 235.353 136.768 274.649 115.503 317.896H70.4302V73.4497ZM317.897 115.502C274.65 136.767 235.354 164.876 201.459 198.446L73.4507 70.4287H317.897V115.502ZM509.897 70.4287V70.4799C442.757 70.8042 379.107 86.1727 322.164 113.403V70.4287H509.897ZM701.897 70.4287V113.403C644.954 86.1727 581.304 70.8042 514.164 70.4799V70.4287H701.897ZM950.618 70.4287L822.601 198.446C788.706 164.876 749.419 136.767 706.164 115.502V70.4287H950.618ZM908.557 317.896C887.301 274.649 859.192 235.353 825.622 201.458L953.63 73.4497V317.896H908.557ZM953.63 509.895H953.579C953.263 442.755 937.894 379.105 910.665 322.162H953.63V509.895ZM953.63 701.895H910.665C937.894 644.953 953.263 581.311 953.579 514.162H953.63V701.895ZM709.184 706.162H903.761C882.829 748.249 855.352 786.512 822.601 819.579L709.184 706.162ZM706.164 709.174L819.589 822.599C786.513 855.35 748.25 882.819 706.164 903.76V709.174ZM514.164 787.178C586.893 786.615 652.95 757.695 701.897 710.958V905.953C645.048 933.465 581.372 948.987 514.164 949.311V787.178ZM322.164 710.958C371.111 757.695 437.167 786.615 509.897 787.178V949.311C442.688 948.987 379.013 933.465 322.164 905.953V710.958ZM317.897 709.183V903.76C275.819 882.819 237.547 855.351 204.48 822.6L317.897 709.183ZM314.884 706.162L201.459 819.579C168.708 786.512 141.24 748.249 120.299 706.162H314.884ZM236.881 514.162C237.445 586.892 266.364 652.948 313.101 701.895H118.106C90.5945 645.046 75.0723 581.371 74.748 514.162H236.881ZM313.101 322.162C266.364 371.109 237.445 437.166 236.881 509.895H74.748C75.0723 442.687 90.5945 379.011 118.114 322.162H313.101ZM314.884 317.896H120.299C141.24 275.818 168.708 237.546 201.459 204.479L314.884 317.896ZM317.897 314.875L204.48 201.458C237.547 168.707 275.819 141.239 317.897 120.298V314.875ZM509.897 236.88C437.167 237.443 371.111 266.363 322.164 313.1V118.113C379.013 90.593 442.688 75.0708 509.897 74.7466V236.88ZM701.897 313.1C652.95 266.363 586.893 237.443 514.164 236.88V74.7466C581.372 75.0708 645.048 90.593 701.897 118.113V313.1ZM706.164 314.883V120.298C748.25 141.239 786.513 168.707 819.589 201.458L706.164 314.883ZM709.184 317.896L822.601 204.479C855.352 237.546 882.82 275.818 903.761 317.896H709.184ZM787.179 509.895C786.624 437.166 757.696 371.109 710.959 322.162H905.954C933.466 379.011 948.988 442.687 949.312 509.895H787.179ZM787.179 514.162H949.312C948.988 581.371 933.466 645.046 905.954 701.895H710.959C757.696 652.948 786.624 586.892 787.179 514.162ZM514.164 706.162H700.745C652.395 753.181 586.637 782.348 514.164 782.911V706.162ZM509.897 706.162V782.911C437.423 782.348 371.665 753.181 323.315 706.162H509.897ZM317.897 514.162V700.743C270.887 652.394 241.72 586.636 241.148 514.162H317.897ZM317.897 509.896H241.148C241.72 437.422 270.887 371.664 317.897 323.314V509.896ZM509.897 317.895H323.315C371.665 270.885 437.423 241.718 509.897 241.146V317.895ZM514.164 317.895V241.146C586.637 241.718 652.395 270.885 700.745 317.895H514.164ZM706.164 509.896V323.314C753.182 371.664 782.349 437.422 782.912 509.896H706.164ZM706.164 514.162H782.912C782.349 586.636 753.182 652.394 706.164 700.752V514.162ZM514.164 517.174L698.885 701.895H514.164V517.174ZM509.897 517.183V701.896H325.184L509.897 517.183ZM506.885 514.162L322.164 698.883V514.162H506.885ZM506.885 509.895H322.164V325.174L506.885 509.895ZM509.897 506.875L325.184 322.162H509.897V506.875ZM514.164 506.883V322.162H698.885L514.164 506.883ZM701.897 514.162V698.875L517.184 514.162H701.897ZM517.184 509.896L701.897 325.183V509.896H517.184ZM953.63 950.617L825.622 822.599C859.192 788.705 887.301 749.418 908.557 706.162H953.63V950.617ZM1035.58 1032.56L960.918 957.896H1026.16V953.629H957.897V706.162H1026.16V701.896H957.897V514.162H1026.16V509.896H957.897V322.162H1026.16V317.896H957.897V70.4289H1026.16V66.1622H960.918L1027.05 0.0288682L1024.03 -2.9834L957.897 63.1499V-2.10447H953.63V66.1622H706.163V-2.10447H701.897V66.1622H514.163V-2.10447H509.897V66.1622H322.163V-2.10447H317.897V66.1622H70.4301V-2.10447H66.1634V63.1499L0.0300775 -2.9834L-2.99072 0.0288682L63.1511 66.1622H-2.10326V70.4289H66.1634V317.896H-2.10326V322.162H66.1634V509.896H-2.10326V514.162H66.1634V701.896H-2.10326V706.162H66.1634V953.629H-2.10326V957.896H63.1511L-2.99072 1024.03L0.0300775 1027.05L66.1634 960.916V1026.16H70.4301V957.896H317.897V1026.16H322.163V957.896H509.897V1026.16H514.163V957.896H701.897V1026.16H706.163V957.896H953.63V1026.16H957.897V960.916L1032.56 1035.58L1035.58 1032.56Z" fill="black"/>
</g>
<g clip-path="url(#clip1_115_7802)">
<rect width="1024" height="1024" fill="white"/>
</g>
<path d="M1024 0H0V512H1024V0Z" fill="#5893D4"/>
<rect y="512" width="1024" height="512" fill="#5893D4"/>
<path d="M817.709 500.759C817.709 530.254 814.306 558.776 807.5 586.326C800.693 613.552 790.808 639.158 777.843 663.142C765.202 687.127 749.645 709.167 731.17 729.262C713.019 749.033 692.438 766.05 669.426 780.311C646.737 794.572 621.942 805.754 595.04 813.857C568.139 821.636 539.616 825.525 509.473 825.525C480.303 825.525 452.429 821.798 425.851 814.343C399.597 806.889 374.964 796.517 351.952 783.228C328.94 769.615 308.034 753.409 289.235 734.61C270.761 715.487 254.879 694.42 241.59 671.407C228.625 648.071 218.416 623.114 210.961 596.536C203.83 569.958 200.265 542.246 200.265 513.4C200.265 485.202 203.668 457.652 210.475 430.75C217.281 403.524 227.005 377.919 239.645 353.934C252.61 329.949 268.168 307.909 286.318 287.814C304.469 267.719 324.726 250.378 347.09 235.793C369.779 221.208 394.25 209.864 420.503 201.761C446.757 193.658 474.469 189.606 503.639 189.606C550.636 189.606 593.42 196.899 631.99 211.484C670.884 226.069 703.944 246.975 731.17 274.201C758.72 301.103 779.95 333.839 794.859 372.409C810.093 410.655 817.709 453.438 817.709 500.759ZM601.847 513.4C601.847 499.463 599.74 486.012 595.527 473.047C591.637 459.758 585.803 448.09 578.024 438.042C570.245 427.671 560.522 419.406 548.854 413.247C537.51 406.765 524.383 403.524 509.473 403.524C494.24 403.524 480.627 406.279 468.635 411.789C456.642 417.299 446.27 424.916 437.519 434.639C429.092 444.039 422.61 455.221 418.072 468.185C413.535 480.826 411.266 494.277 411.266 508.538C411.266 522.151 413.21 535.764 417.1 549.377C420.989 562.99 426.823 575.306 434.602 586.326C442.381 597.346 451.942 606.26 463.287 613.066C474.955 619.873 488.406 623.276 503.639 623.276C518.873 623.276 532.486 620.359 544.478 614.525C556.795 608.366 567.166 600.263 575.593 590.216C584.02 579.844 590.503 568.014 595.04 554.725C599.578 541.436 601.847 527.661 601.847 513.4Z" fill="white"/>
<path d="M679.583 511.723C686.732 618.548 600.942 704 500.854 704C393.616 704 336.423 598.248 336.423 511.72C329.274 383.535 413.989 312.318 500.854 312.318C622.389 305.196 679.583 419.144 679.583 511.723Z" fill="#5893D4"/>
</g>
<defs>
<clipPath id="clip0_115_7802">
<rect width="1024" height="1024" fill="white"/>
</clipPath>
<clipPath id="clip1_115_7802">
<rect width="1024" height="1024" fill="white"/>
</clipPath>
</defs>
</svg>
