<svg width="1024" height="1024" viewBox="0 0 1024 1024" fill="none" xmlns="http://www.w3.org/2000/svg">
<g clip-path="url(#clip0_124_133)">
<mask id="mask0_124_133" style="mask-type:luminance" maskUnits="userSpaceOnUse" x="0" y="0" width="1024" height="1024">
<rect width="1024" height="1024" fill="white"/>
</mask>
<g mask="url(#mask0_124_133)">
<path opacity="0.5" fill-rule="evenodd" clip-rule="evenodd" d="M706.163 908.555C749.419 887.29 788.706 859.181 822.6 825.611L950.617 953.628H706.163V908.555ZM514.163 953.629V953.578C581.303 953.254 644.953 937.894 701.896 910.655V953.629H514.163ZM322.163 953.629V910.655C379.106 937.894 442.756 953.254 509.896 953.578V953.629H322.163ZM73.4502 953.628L201.459 825.611C235.353 859.181 274.649 887.29 317.896 908.555V953.628H73.4502ZM115.503 706.162C136.768 749.418 164.877 788.705 198.447 822.599L70.4297 950.617V706.162H115.503ZM70.4297 514.162H70.4809C70.8052 581.311 86.1652 644.953 113.404 701.895H70.4297V514.162ZM70.4297 322.162H113.404C86.1652 379.105 70.8052 442.755 70.4809 509.895H70.4297V322.162ZM70.4297 73.4492L198.447 201.458C164.877 235.352 136.768 274.648 115.503 317.895H70.4297V73.4492ZM317.896 115.502C274.649 136.767 235.353 164.876 201.459 198.446L73.4502 70.4287H317.896V115.502ZM509.896 70.4287V70.4799C442.756 70.8042 379.106 86.1727 322.163 113.403V70.4287H509.896ZM701.896 70.4287V113.403C644.953 86.1727 581.303 70.8042 514.163 70.4799V70.4287H701.896ZM950.617 70.4287L822.6 198.446C788.706 164.876 749.419 136.767 706.163 115.502V70.4287H950.617ZM908.557 317.895C887.3 274.648 859.191 235.352 825.621 201.458L953.63 73.4492V317.895H908.557ZM953.629 509.895H953.578C953.262 442.755 937.894 379.105 910.664 322.162H953.629V509.895ZM953.629 701.895H910.664C937.894 644.953 953.262 581.311 953.578 514.162H953.629V701.895ZM709.184 706.162H903.761C882.828 748.249 855.351 786.512 822.6 819.579L709.184 706.162ZM706.163 709.175L819.588 822.6C786.513 855.351 748.249 882.82 706.163 903.76V709.175ZM514.163 787.178C586.893 786.615 652.949 757.695 701.896 710.958V905.953C645.047 933.465 581.372 948.987 514.163 949.311V787.178ZM322.163 710.958C371.11 757.695 437.167 786.615 509.896 787.178V949.311C442.688 948.987 379.012 933.465 322.163 905.953V710.958ZM317.896 709.183V903.76C275.818 882.819 237.546 855.35 204.479 822.599L317.896 709.183ZM314.884 706.162L201.459 819.579C168.708 786.512 141.24 748.249 120.299 706.162H314.884ZM236.88 514.162C237.444 586.892 266.363 652.948 313.1 701.895H118.105C90.5935 645.046 75.0713 581.371 74.7471 514.162H236.88ZM313.1 322.162C266.363 371.109 237.444 437.166 236.88 509.895H74.7471C75.0713 442.687 90.5935 379.011 118.113 322.162H313.1ZM314.884 317.895H120.299C141.24 275.817 168.708 237.545 201.459 204.479L314.884 317.895ZM317.896 314.875L204.479 201.458C237.546 168.707 275.818 141.239 317.896 120.298V314.875ZM509.896 236.88C437.167 237.444 371.11 266.363 322.163 313.1V118.113C379.012 90.5935 442.688 75.0713 509.896 74.7471V236.88ZM701.896 313.1C652.949 266.363 586.893 237.444 514.163 236.88V74.7471C581.372 75.0713 645.047 90.5935 701.896 118.113V313.1ZM706.163 314.883V120.298C748.249 141.239 786.513 168.707 819.588 201.458L706.163 314.883ZM709.184 317.895L822.6 204.479C855.351 237.545 882.82 275.817 903.761 317.895H709.184ZM787.179 509.895C786.624 437.166 757.696 371.109 710.959 322.162H905.954C933.466 379.011 948.988 442.687 949.312 509.895H787.179ZM787.179 514.162H949.312C948.988 581.371 933.466 645.046 905.954 701.895H710.959C757.696 652.948 786.624 586.892 787.179 514.162V514.162ZM514.163 706.162H700.744C652.395 753.181 586.637 782.348 514.163 782.911V706.162ZM509.896 706.162V782.911C437.422 782.348 371.664 753.181 323.314 706.162H509.896ZM317.896 514.162V700.743C270.886 652.394 241.719 586.636 241.147 514.162H317.896ZM317.896 509.896H241.147C241.719 437.422 270.886 371.664 317.896 323.314V509.896ZM509.896 317.895H323.314C371.664 270.885 437.422 241.718 509.896 241.146V317.895ZM514.163 317.895V241.146C586.637 241.718 652.395 270.885 700.744 317.895H514.163ZM706.163 509.896V323.314C753.182 371.664 782.349 437.422 782.912 509.896H706.163ZM706.163 514.162H782.912C782.349 586.636 753.182 652.394 706.163 700.752V514.162ZM514.163 517.175L698.884 701.896H514.163V517.175ZM509.896 517.183V701.895H325.184L509.896 517.183ZM506.884 514.162L322.163 698.883V514.162H506.884ZM506.884 509.896H322.163V325.175L506.884 509.896ZM509.896 506.875L325.184 322.162H509.896V506.875ZM514.163 506.883V322.162H698.884L514.163 506.883ZM701.896 514.162V698.875L517.184 514.162H701.896ZM517.184 509.895L701.896 325.183V509.895H517.184ZM953.63 950.617L825.621 822.599C859.191 788.705 887.3 749.418 908.557 706.162H953.63V950.617ZM1035.58 1032.56L960.917 957.896H1026.16V953.629H957.896V706.162H1026.16V701.896H957.896V514.162H1026.16V509.896H957.896V322.162H1026.16V317.896H957.896V70.4289H1026.16V66.1622H960.917L1027.05 0.0288682L1024.03 -2.9834L957.896 63.1499V-2.10447H953.63V66.1622H706.163V-2.10447H701.896V66.1622H514.163V-2.10447H509.896V66.1622H322.163V-2.10447H317.896V66.1622H70.4296V-2.10447H66.1629V63.1499L0.0295892 -2.9834L-2.99121 0.0288682L63.1507 66.1622H-2.10374V70.4289H66.1629V317.896H-2.10374V322.162H66.1629V509.896H-2.10374V514.162H66.1629V701.896H-2.10374V706.162H66.1629V953.629H-2.10374V957.896H63.1507L-2.99121 1024.03L0.0295892 1027.05L66.1629 960.916V1026.16H70.4296V957.896H317.896V1026.16H322.163V957.896H509.896V1026.16H514.163V957.896H701.896V1026.16H706.163V957.896H953.63V1026.16H957.896V960.916L1032.56 1035.58L1035.58 1032.56Z" fill="black"/>
</g>
<path d="M817.709 500.759C817.709 530.254 814.306 558.776 807.5 586.326C800.693 613.552 790.808 639.158 777.843 663.142C765.202 687.127 749.645 709.167 731.17 729.262C713.019 749.033 692.438 766.05 669.426 780.311C646.737 794.572 621.942 805.754 595.04 813.857C568.139 821.636 539.616 825.525 509.473 825.525C480.303 825.525 452.429 821.798 425.851 814.343C399.597 806.889 374.964 796.517 351.952 783.228C328.94 769.615 308.034 753.409 289.235 734.61C270.761 715.487 254.879 694.42 241.59 671.407C228.625 648.071 218.416 623.114 210.961 596.536C203.83 569.958 200.265 542.246 200.265 513.4C200.265 485.202 203.668 457.652 210.475 430.75C217.281 403.524 227.005 377.919 239.645 353.934C252.61 329.949 268.168 307.909 286.318 287.814C304.469 267.719 324.726 250.378 347.09 235.793C369.779 221.208 394.25 209.864 420.503 201.761C446.757 193.658 474.469 189.606 503.639 189.606C550.636 189.606 593.42 196.899 631.99 211.484C670.884 226.069 703.944 246.975 731.17 274.201C758.72 301.103 779.95 333.839 794.859 372.409C810.093 410.655 817.709 453.438 817.709 500.759ZM601.847 513.4C601.847 499.463 599.74 486.012 595.527 473.047C591.637 459.758 585.803 448.09 578.024 438.042C570.245 427.671 560.522 419.406 548.854 413.247C537.51 406.765 524.383 403.524 509.473 403.524C494.24 403.524 480.627 406.279 468.635 411.789C456.642 417.299 446.27 424.916 437.519 434.639C429.092 444.039 422.61 455.221 418.072 468.185C413.535 480.826 411.266 494.277 411.266 508.538C411.266 522.151 413.21 535.764 417.1 549.377C420.989 562.99 426.823 575.306 434.602 586.326C442.381 597.346 451.942 606.26 463.287 613.066C474.955 619.873 488.406 623.276 503.639 623.276C518.873 623.276 532.486 620.359 544.478 614.525C556.795 608.366 567.166 600.263 575.593 590.216C584.02 579.844 590.503 568.014 595.04 554.725C599.578 541.436 601.847 527.661 601.847 513.4Z" fill="white"/>
<path d="M679.583 511.723C686.732 618.548 600.942 704 500.854 704C393.616 704 336.423 598.248 336.423 511.72C329.274 383.535 413.989 312.318 500.854 312.318C622.389 305.196 679.583 419.144 679.583 511.723Z" fill="#5893D4"/>
</g>
<defs>
<clipPath id="clip0_124_133">
<rect width="1024" height="1024" fill="white"/>
</clipPath>
</defs>
</svg>
