<svg width="1024" height="1024" viewBox="0 0 1024 1024" fill="none" xmlns="http://www.w3.org/2000/svg">
<g clip-path="url(#clip0_124_133)">
<path d="M817.709 500.759C817.709 530.254 814.306 558.776 807.5 586.326C800.693 613.552 790.808 639.158 777.843 663.142C765.202 687.127 749.645 709.167 731.17 729.262C713.019 749.033 692.438 766.05 669.426 780.311C646.737 794.572 621.942 805.754 595.04 813.857C568.139 821.636 539.616 825.525 509.473 825.525C480.303 825.525 452.429 821.798 425.851 814.343C399.597 806.889 374.964 796.517 351.952 783.228C328.94 769.615 308.034 753.409 289.235 734.61C270.761 715.487 254.879 694.42 241.59 671.407C228.625 648.071 218.416 623.114 210.961 596.536C203.83 569.958 200.265 542.246 200.265 513.4C200.265 485.202 203.668 457.652 210.475 430.75C217.281 403.524 227.005 377.919 239.645 353.934C252.61 329.949 268.168 307.909 286.318 287.814C304.469 267.719 324.726 250.378 347.09 235.793C369.779 221.208 394.25 209.864 420.503 201.761C446.757 193.658 474.469 189.606 503.639 189.606C550.636 189.606 593.42 196.899 631.99 211.484C670.884 226.069 703.944 246.975 731.17 274.201C758.72 301.103 779.95 333.839 794.859 372.409C810.093 410.655 817.709 453.438 817.709 500.759ZM601.847 513.4C601.847 499.463 599.74 486.012 595.527 473.047C591.637 459.758 585.803 448.09 578.024 438.042C570.245 427.671 560.522 419.406 548.854 413.247C537.51 406.765 524.383 403.524 509.473 403.524C494.24 403.524 480.627 406.279 468.635 411.789C456.642 417.299 446.27 424.916 437.519 434.639C429.092 444.039 422.61 455.221 418.072 468.185C413.535 480.826 411.266 494.277 411.266 508.538C411.266 522.151 413.21 535.764 417.1 549.377C420.989 562.99 426.823 575.306 434.602 586.326C442.381 597.346 451.942 606.26 463.287 613.066C474.955 619.873 488.406 623.276 503.639 623.276C518.873 623.276 532.486 620.359 544.478 614.525C556.795 608.366 567.166 600.263 575.593 590.216C584.02 579.844 590.503 568.014 595.04 554.725C599.578 541.436 601.847 527.661 601.847 513.4Z" fill="white"/>
<path d="M679.583 511.723C686.732 618.548 600.942 704 500.854 704C393.616 704 336.423 598.248 336.423 511.72C329.274 383.535 413.989 312.318 500.854 312.318C622.389 305.196 679.583 419.144 679.583 511.723Z" fill="#5893D4"/>
</g>
<defs>
<clipPath id="clip0_124_133">
<rect width="1024" height="1024" fill="white"/>
</clipPath>
</defs>
</svg>
